<svg width="70" height="17" viewBox="0 0 70 17" fill="none" xmlns="http://www.w3.org/2000/svg">
<path d="M18.4634 13.6468C18.4922 13.9979 18.6291 14.3491 18.8742 14.7002C19.1192 15.0513 19.2417 15.3112 19.2417 15.4797V15.564C19.2417 15.8308 19.0688 15.9642 18.7228 15.9642H14.3989C14.0529 15.9642 13.88 15.8308 13.88 15.564V15.4797C13.88 15.3252 14.0169 15.0724 14.2908 14.7213C14.5646 14.3701 14.6871 14.012 14.6583 13.6468L14.4421 9.91789C14.3844 8.86452 14.2403 8.12014 14.0097 7.68475C13.7791 7.23531 13.426 7.01059 12.9503 7.01059C12.5179 7.01059 12.1864 7.19317 11.9558 7.55834C11.7252 7.92351 11.6099 8.40806 11.6099 9.01199C11.6531 9.30694 11.6747 9.60188 11.6747 9.89682V13.6468C11.6747 13.9979 11.8045 14.3491 12.0639 14.7002C12.3233 15.0513 12.4531 15.3112 12.4531 15.4797V15.564C12.4531 15.8308 12.2801 15.9642 11.9342 15.9642H7.63183C7.28591 15.9642 7.11295 15.8308 7.11295 15.564V15.4797C7.11295 15.3112 7.23546 15.0513 7.48049 14.7002C7.73993 14.3491 7.86964 13.9979 7.86964 13.6468V9.64401C7.86964 7.8884 7.37959 7.01059 6.39949 7.01059C5.92385 7.01059 5.56352 7.19317 5.3185 7.55834C5.07347 7.92351 4.95096 8.40806 4.95096 9.01199V13.6468C4.95096 13.9979 5.1095 14.3491 5.4266 14.7002C5.74369 15.0513 5.90223 15.3112 5.90223 15.4797V15.564C5.90223 15.8308 5.72927 15.9642 5.38336 15.9642H0.713457C0.367538 15.9642 0.194579 15.8308 0.194579 15.564V15.4797C0.194579 15.3112 0.353125 15.0513 0.670217 14.7002C0.987309 14.3491 1.14585 13.9979 1.14585 13.6468V9.49654C1.14585 9.21564 1.04496 8.97688 0.843176 8.78025C0.655804 8.56958 0.468431 8.38699 0.281059 8.2325C0.0936863 8.078 0 7.91649 0 7.74795V7.68475C0 7.50216 0.172959 7.3266 0.518878 7.15806L3.76186 5.70441C4.0213 5.59205 4.22309 5.59205 4.36722 5.70441C4.51135 5.81677 4.58342 5.98531 4.58342 6.21003V6.96845C5.24643 6.06958 6.20491 5.62014 7.45887 5.62014C9.05874 5.62014 10.2406 6.19598 11.0045 7.34767C11.2928 6.79991 11.718 6.37857 12.2801 6.08362C12.8422 5.77463 13.4836 5.62014 14.2043 5.62014C15.2564 5.62014 16.1501 5.96424 16.8851 6.65244C17.6346 7.34064 18.067 8.47126 18.1823 10.0443L18.4634 13.6468Z" fill="white"/>
<path d="M30.3094 13.6468C30.3527 13.9839 30.4319 14.2578 30.5472 14.4685C30.677 14.6651 30.7995 14.7915 30.9148 14.8477C31.0445 14.9038 31.1598 14.9741 31.2607 15.0583C31.3616 15.1426 31.412 15.2479 31.412 15.3744C31.412 15.8378 30.5977 16.0696 28.969 16.0696C28.306 16.0696 27.8087 15.9923 27.4772 15.8378C27.1601 15.6833 26.9583 15.4235 26.8718 15.0583C26.3241 15.7887 25.4089 16.1538 24.1261 16.1538C22.9154 16.1538 21.9281 15.88 21.1642 15.3322C20.4147 14.7845 20.04 13.9909 20.04 12.9516C20.04 11.9404 20.4147 11.1538 21.1642 10.592C21.9137 10.0162 22.8361 9.72828 23.9315 9.72828C24.7819 9.72828 25.5098 9.90385 26.1152 10.255V10.1918C25.971 8.80132 25.8053 7.86031 25.6179 7.36873C25.4449 6.87716 25.099 6.63137 24.5801 6.63137C24.2486 6.63137 23.982 6.77885 23.7802 7.07379C23.5784 7.36873 23.4271 7.69177 23.3262 8.04289C23.2397 8.39401 23.0667 8.71705 22.8073 9.01199C22.5479 9.30694 22.2019 9.45441 21.7696 9.45441C21.3227 9.45441 20.9552 9.328 20.6669 9.0752C20.3931 8.82239 20.2562 8.49233 20.2562 8.08503C20.2562 7.27042 20.6741 6.65946 21.5101 6.25216C22.3461 5.83081 23.3694 5.62014 24.5801 5.62014C26.0215 5.62014 27.2106 6.00638 28.1474 6.77885C29.0987 7.53727 29.6608 8.56958 29.8338 9.87576L30.3094 13.6468ZM25.3152 15.0794C25.6467 15.0794 25.9134 14.9249 26.1152 14.6159C26.3313 14.3069 26.4394 13.9558 26.4394 13.5626L26.353 12.5935C26.2088 11.4277 25.762 10.8449 25.0125 10.8449C24.681 10.8449 24.4144 10.9783 24.2126 11.2451C24.0108 11.4979 23.9099 11.842 23.9099 12.2774C23.9099 13.064 24.0324 13.7311 24.2775 14.2788C24.5369 14.8126 24.8828 15.0794 25.3152 15.0794Z" fill="white"/>
<path d="M43.6874 13.6468C43.7162 13.9979 43.8532 14.3491 44.0982 14.7002C44.3432 15.0373 44.4657 15.2971 44.4657 15.4797V15.564C44.4657 15.8308 44.2928 15.9642 43.9468 15.9642H39.6229C39.2769 15.9642 39.104 15.8308 39.104 15.564V15.4797C39.104 15.3112 39.2409 15.0513 39.5148 14.7002C39.7886 14.3491 39.9111 13.9979 39.8823 13.6468L39.6661 9.87576C39.6084 8.83643 39.4643 8.09907 39.2337 7.66368C39.0175 7.22828 38.6644 7.01059 38.1743 7.01059C37.7131 7.01059 37.36 7.19317 37.115 7.55834C36.8843 7.92351 36.769 8.4221 36.769 9.05413V13.6468C36.769 13.9979 36.9276 14.3491 37.2447 14.7002C37.5618 15.0513 37.7203 15.3112 37.7203 15.4797V15.564C37.7203 15.8308 37.5473 15.9642 37.2014 15.9642H32.5315C32.1856 15.9642 32.0127 15.8308 32.0127 15.564V15.4797C32.0127 15.3112 32.1712 15.0513 32.4883 14.7002C32.8054 14.3491 32.9639 13.9979 32.9639 13.6468V9.49654C32.9639 9.2016 32.8702 8.95581 32.6829 8.75918C32.4955 8.54851 32.3009 8.37295 32.0991 8.2325C31.9118 8.078 31.8181 7.91649 31.8181 7.74795V7.68475C31.8181 7.50216 31.991 7.3266 32.337 7.15806L35.3637 5.70441C35.6376 5.59205 35.8394 5.59205 35.9691 5.70441C36.1132 5.80272 36.1853 5.97126 36.1853 6.21003V7.20019C36.7907 6.14682 37.8212 5.62014 39.2769 5.62014C40.3579 5.62014 41.2876 5.96424 42.0659 6.65244C42.8442 7.34064 43.291 8.45722 43.4063 10.0022L43.6874 13.6468Z" fill="white"/>
<path d="M56.2315 13.6468C56.2315 13.9979 56.3756 14.3491 56.6639 14.7002C56.9522 15.0373 57.0963 15.2901 57.0963 15.4586V15.5429C57.0963 15.8097 56.9305 15.9432 56.599 15.9432H53.5074C53.1327 15.9432 52.9453 15.7676 52.9453 15.4165V15.2269C52.2679 15.8449 51.3886 16.1538 50.3077 16.1538C48.9096 16.1538 47.7061 15.6904 46.6971 14.7634C45.7026 13.8224 45.2054 12.5303 45.2054 10.887C45.2054 9.35609 45.7098 8.09907 46.7187 7.11592C47.7277 6.11873 48.9312 5.62014 50.3293 5.62014C51.2085 5.62014 51.9508 5.81677 52.5561 6.21003V3.40806C52.5561 3.12716 52.4624 2.8884 52.2751 2.69177C52.0877 2.48109 51.8931 2.30553 51.6913 2.16508C51.504 2.01059 51.4103 1.84907 51.4103 1.68053V1.61733C51.4103 1.35048 51.576 1.16789 51.9075 1.06958L55.2802 0.079408C55.9144 -0.117221 56.2315 0.051318 56.2315 0.585026V13.6468ZM51.1724 15.1215C51.5616 15.1356 51.8859 14.9811 52.1453 14.6581C52.4192 14.335 52.5561 13.8996 52.5561 13.3519V9.28587C52.5561 8.61171 52.3543 8.00778 51.9508 7.47407C51.5616 6.92632 51.1148 6.65244 50.6103 6.65244C49.5438 6.65244 48.9744 7.51621 48.9024 9.24373C48.8735 9.90385 48.9312 10.6693 49.0753 11.5401C49.2339 12.4109 49.4933 13.2255 49.8536 13.9839C50.2284 14.7283 50.668 15.1075 51.1724 15.1215Z" fill="white"/>
<path d="M69.0704 13.6258C69.0704 14.005 69.1136 14.2929 69.2001 14.4895C69.301 14.6862 69.4091 14.7985 69.5244 14.8266C69.6541 14.8406 69.7622 14.8898 69.8487 14.9741C69.9496 15.0583 70 15.1918 70 15.3744C70 15.6412 69.8126 15.8238 69.4379 15.9221C69.0776 16.0204 68.5226 16.0696 67.7732 16.0696C67.0957 16.0696 66.5985 15.9783 66.2814 15.7957C65.9787 15.6131 65.7985 15.2971 65.7409 14.8477C65.1644 15.7185 64.1482 16.1538 62.6925 16.1538C61.5394 16.1538 60.5737 15.7887 59.7954 15.0583C59.0315 14.314 58.6496 13.2957 58.6496 12.0036V8.48531C58.6496 8.12014 58.5054 7.76902 58.2172 7.43194C57.9289 7.09486 57.7848 6.85609 57.7848 6.71564V6.63137C57.7848 6.35048 57.9505 6.18896 58.282 6.14682L61.5034 5.72548C62.1808 5.64121 62.5195 5.78166 62.5195 6.14682L62.4547 12.3828C62.4402 13.2255 62.5411 13.8364 62.7573 14.2156C62.9879 14.5808 63.3483 14.7634 63.8383 14.7634C64.2419 14.7634 64.5806 14.5738 64.8545 14.1946C65.1283 13.8013 65.2652 13.2887 65.2652 12.6567V8.48531C65.2652 8.12014 65.1211 7.76902 64.8328 7.43194C64.5446 7.09486 64.4004 6.85609 64.4004 6.71564V6.63137C64.4004 6.35048 64.5662 6.18896 64.8977 6.14682L68.1191 5.72548C68.7533 5.64121 69.0704 5.78166 69.0704 6.14682V13.6258Z" fill="white"/>
<path d="M60.7596 4.48461C60.5131 4.72482 60.1134 4.72482 59.8669 4.48461L58.4466 3.10062C58.2001 2.8604 58.2001 2.47094 58.4466 2.23072L59.8669 0.846733C60.1134 0.606519 60.5131 0.606518 60.7596 0.846732L62.1799 2.23072C62.4264 2.47094 62.4264 2.8604 62.1799 3.10062L60.7596 4.48461Z" fill="white"/>
<path d="M67.2845 4.48461C67.038 4.72482 66.6383 4.72482 66.3918 4.48461L64.9715 3.10062C64.725 2.8604 64.725 2.47094 64.9715 2.23072L66.3918 0.846733C66.6383 0.606519 67.038 0.606518 67.2845 0.846733L68.7048 2.23072C68.9513 2.47094 68.9513 2.8604 68.7048 3.10062L67.2845 4.48461Z" fill="white"/>
</svg>
